<svg width="24" height="25" viewBox="0 0 24 25" fill="none" xmlns="http://www.w3.org/2000/svg">
<path d="M11 4.50004H6C5.46957 4.50004 4.96086 4.71075 4.58579 5.08583C4.21071 5.4609 4 5.96961 4 6.50004V17.5C4 18.0305 4.21071 18.5392 4.58579 18.9143C4.96086 19.2893 5.46957 19.5 6 19.5H17C17.5304 19.5 18.0391 19.2893 18.4142 18.9143C18.7893 18.5392 19 18.0305 19 17.5V12.5M17.586 3.08604C17.7705 2.89502 17.9912 2.74266 18.2352 2.63784C18.4792 2.53302 18.7416 2.47785 19.0072 2.47554C19.2728 2.47323 19.5361 2.52384 19.7819 2.6244C20.0277 2.72496 20.251 2.87346 20.4388 3.06125C20.6266 3.24904 20.7751 3.47234 20.8756 3.71813C20.9762 3.96392 21.0268 4.22728 21.0245 4.49284C21.0222 4.7584 20.967 5.02084 20.8622 5.26485C20.7574 5.50886 20.605 5.72955 20.414 5.91404L11.828 14.5H9V11.672L17.586 3.08604Z" stroke="#111928" stroke-width="2" stroke-linecap="round" stroke-linejoin="round"/>
</svg>
